<?xml version="1.0" encoding="utf-8"?>
<!-- Generator: Adobe Illustrator 23.1.1, SVG Export Plug-In . SVG Version: 6.00 Build 0)  -->
<svg version="1.1" id="Layer_1" xmlns="http://www.w3.org/2000/svg" xmlns:xlink="http://www.w3.org/1999/xlink" x="0px" y="0px"
	 viewBox="0 0 504.9 357.4" style="enable-background:new 0 0 504.9 357.4;" xml:space="preserve">
<style type="text/css">
	.st0{fill:#4B69EA;}
	.st1{fill:#9EAEEF;}
	.st2{fill:#D8D8D8;}
	.st3{fill:#FFFFFF;}
	.st4{fill:#E4E8FE;}
	.st5{fill:none;stroke:#E4E8FE;stroke-width:2;stroke-miterlimit:10;}
	.st6{fill:#EE475B;}
</style>
<g>
	<path class="st0" d="M95.4,319.7h312.9c14.7-12.7,27-28.3,35.4-46.6c25.6-56,11.3-137-23.6-185.7c-29.3-40.9-99.7-49.5-143-50.5
		c-34.7-0.8-69.6,5.2-102.3,18.1c-3.5,1.4-6.9,2.8-10.3,4.3c-35.9,16-69.4,40.7-91.5,75.5C51,169.6,41.4,215.2,53.2,255.6
		C60.7,281.1,76.1,302.9,95.4,319.7z"/>
	<g>
		<g>
			<path class="st1" d="M187.4,101.6c0.7,0.2,14.7,37.7,15.8,49.3l3.4,1.1c0,0-0.5-22.1-0.5-23.3s-1.8-17.8-1.8-17.8l-5.2-10.2
				l-5-3.6L187.4,101.6z"/>
			<polygon class="st1" points="261.7,99.9 212.1,153.5 222.1,151.6 265.1,118.1 266.3,105.8 			"/>
			<polygon class="st1" points="201.3,154.4 161.1,122.4 166,135.3 152.8,138.6 193.8,154.3 			"/>
			<g>
				<polygon class="st2" points="254.2,154.4 254.2,170.1 254.2,199.6 254.2,200.2 254.2,210.4 254.2,226.7 254.2,243.1 
					254.2,255.5 280.9,255.5 280.9,154.4 				"/>
				<polygon class="st3" points="254.2,226.7 254.2,210.4 254.2,200.2 254.2,199.6 254.2,170.1 254.2,154.4 146.6,154.4 
					146.6,170.1 146.6,199.6 146.6,200.2 146.6,210.4 146.6,226.7 146.6,243.1 146.6,255.5 254.2,255.5 254.2,243.1 				"/>
				<polygon class="st4" points="208.2,226.7 208.2,210.4 208.2,200.2 208.2,199.6 208.2,170.1 208.2,154.4 195.9,154.4 
					195.9,170.1 195.9,199.6 195.9,200.2 195.9,210.4 195.9,226.7 195.9,243.1 195.9,255.5 208.2,255.5 208.2,243.1 				"/>
			</g>
			<path class="st4" d="M220.5,154.4c0,0,29.4-23.1,52.2-25.7l-10.2,11.2l12.5,4.3L220.5,154.4z"/>
			<path class="st4" d="M244.7,85.5c-28-6.6-36.5,68.9-36.5,68.9h12.3c0,0,39.6-32.3,44.6-36.3C270.1,114.2,272.7,92.1,244.7,85.5z
				 M264.2,116.3c-3.2,2.7-44.2,33.7-44.2,33.7s17.1-63.5,33.7-53.7C265.5,103.4,267.4,113.6,264.2,116.3z"/>
			<path class="st4" d="M195.9,95.7c-15.5-3-28.7,14.5-24.1,30.3c3.8,13.1,24.1,28.3,24.1,28.3h12.3
				C208.2,154.4,211.4,98.7,195.9,95.7z M187.1,111.8c0-8.6,9.1-14.4,12-11.1c5.6,6.6,6.3,48.4,6.3,49.3
				C205.4,149.9,187.1,118.7,187.1,111.8z"/>
		</g>
	</g>
	<g>
		<g>
			<g>
				<path class="st4" d="M411.3,320.1c-15.5-44.5,0.6-65.6,0.6-65.6l-298.2-0.6c0,0-32,30.4-1.2,66.6L411.3,320.1z"/>
			</g>
			<g>
				<path class="st3" d="M409.5,259l-84.3-0.3c-11.8,2.1-13,15.7-13.4,28.4c-0.6,22.4,2.8,28,8.1,29.3l89.9-0.3
					C399,281,409.5,259,409.5,259z"/>
			</g>
			<line class="st5" x1="343.2" y1="281.6" x2="404.3" y2="281.6"/>
			<line class="st5" x1="343.5" y1="295.5" x2="404.6" y2="295.5"/>
		</g>
	</g>
	<path class="st6" d="M230.9,254.2c-0.1,0.8-0.1,1.6-0.1,2.5c0,19,15.4,34.3,34.3,34.3c19,0,34.3-15.4,34.3-34.3
		c0-0.8,0-1.7-0.1-2.5H230.9z"/>
	<g>
		<g>
			<g>
				<path class="st3" d="M395,230.8c3.4-4.1,6.5-7.7,9.4-10.8c6.5-6.8,12.5-11.1,20.3-13.2c2.4-0.6,4.8,0.4,6,2.6
					c3.5,6.4,3.9,13.6,2.6,21.3c1.3,7.7,1,14.9-2.5,21.3c-1.2,2.2-3.6,3.2-6,2.6c-7.8-2.1-13.9-6.5-20.6-13.3
					C401.3,238.2,398.3,234.8,395,230.8z"/>
				<path class="st3" d="M395,230.8c5.1-3.1,9.9-5.7,14.7-7.9c0,0,0,0,0.1,0l0,0c7-3.2,13.7-5.4,20.6-6.2c3.8-0.5,7.2,2.3,7.6,6.1
					l0,0.1c0.5,5.3,0.5,10.6,0,15.9l0,0.1c-0.4,3.8-3.8,6.6-7.6,6.1c-8-0.9-15.8-3.6-23.9-7.6C402.8,235.3,399,233.2,395,230.8z"/>
			</g>
			<g>
				<path class="st3" d="M307.4,231.1c-3.4-4.1-6.5-7.6-9.5-10.7c-6.6-6.7-12.6-11-20.3-13.1c-2.4-0.6-4.8,0.5-6,2.6
					c-3.5,6.4-3.8,13.6-2.5,21.3c-1.3,7.7-0.9,14.9,2.6,21.3c1.2,2.1,3.7,3.2,6,2.6c7.8-2.2,13.9-6.5,20.5-13.5
					C301.1,238.5,304.1,235.1,307.4,231.1z"/>
				<path class="st3" d="M307.4,231.1c-5.1-3-9.9-5.7-14.7-7.9c0,0,0,0-0.1,0l0,0c-7-3.2-13.8-5.3-20.7-6.1
					c-3.8-0.4-7.2,2.3-7.6,6.1l0,0.1c-0.5,5.3-0.5,10.6,0,15.9l0,0.1c0.4,3.8,3.8,6.5,7.6,6.1c7.9-1,15.7-3.7,23.9-7.8
					C299.6,235.6,303.5,233.5,307.4,231.1z"/>
			</g>
			<g>
				<path class="st3" d="M301.9,226.4c2.9-4.1,7.6-10,13.1-14.5c4.3-3.6,9.1-6.2,13.9-6.3c0.8-0.1,1.5-0.2,2.3-0.3
					c0.5,0,0.9,0,1.4-0.1l37.4-0.1c1.3,0,2.5,0.1,3.7,0.3c0.1,0,0.2,0,0.3,0c2.4,0.1,4.9,0.8,7.2,2c2.2,1.1,4.3,2.5,6.3,4.1
					c1.8,1.4,3.4,3,5,4.6c1.4,1.5,2.8,3,4,4.4c1.7,2,3.1,3.9,4.3,5.5c2,2.8,2,6.6,0,9.4c-2.6,3.7-6.7,8.8-11.4,13.1
					c-1.8,1.7-3.8,3.2-5.8,4.4l0,0l0,0c-3.2,2-6.5,3.3-9.8,3.3c-1.2,0.2-2.5,0.3-3.7,0.3l-37.4,0.1c-1.3,0-2.5-0.1-3.7-0.3
					c-1,0-2-0.1-3.1-0.4c-2-0.5-4.1-1.3-6-2.5c-0.3-0.2-0.5-0.3-0.8-0.5c0,0,0,0,0,0c-2.2-1.3-4.2-3-6.2-4.7
					c-1.4-1.3-2.8-2.7-4.1-4.1c-2.8-3-5.2-6.1-7-8.6C299.9,233,299.9,229.2,301.9,226.4z"/>
			</g>
		</g>
	</g>
</g>
</svg>
