<?xml version="1.0" encoding="utf-8"?>
<!-- Generator: Adobe Illustrator 23.1.1, SVG Export Plug-In . SVG Version: 6.00 Build 0)  -->
<svg version="1.1" id="Layer_1" xmlns="http://www.w3.org/2000/svg" xmlns:xlink="http://www.w3.org/1999/xlink" x="0px" y="0px"
	 viewBox="0 0 504.9 357.4" style="enable-background:new 0 0 504.9 357.4;" xml:space="preserve">
<style type="text/css">
	.st0{fill:#FFA3A3;}
	.st1{fill:#EDEDED;}
	.st2{fill:#FFFFFF;}
	.st3{fill:#EE475B;}
	.st4{opacity:0.6;}
	.st5{fill:none;stroke:#B21B1B;stroke-width:3;stroke-linecap:square;stroke-miterlimit:10;}
	.st6{fill:#161616;}
	.st7{fill:none;stroke:#EDEDED;stroke-miterlimit:10;}
	.st8{fill:#D34059;}
</style>
<g>
	<g>
		<path class="st0" d="M199.9,47.2c-61.5,13.7-149.3,59-167.8,132.4c-11.8,47,7.2,94.2,61.8,126.2c10.4,6.1,33.8,10.1,33.8,10.1
			h17.4c0,0,57.7-8.3,87.5-6.4c38.4,2.5,139.3,6.1,177.7,5.6c33.6-0.4,43-15.6,53-32.1c13.2-22.1,18.6-66.1,5.5-101.1
			C440,104.9,364.2,54.3,283.8,43.5C255.3,39.7,227,41.2,199.9,47.2z"/>
	</g>
	<rect x="319.7" y="165.6" class="st1" width="73.2" height="149.5"/>
	<rect x="319.7" y="165.6" class="st2" width="23.5" height="149.5"/>
	<rect x="346.7" y="165.6" class="st2" width="2.5" height="149.5"/>
	<g>
		<g>
			<path class="st3" d="M169.8,93.8c7,1.7,14,3.4,21,5.1c8.4,2,16.8,4,25.2,6.1c2.2,0.5,4.4,1.7,6.4,2.9c3.2,2,5.1,4.7,5.2,8.5
				c0,1.6,2.5,1.6,2.5,0c0-3.4-1.2-6.5-3.8-8.8c-1.3-1.2-2.8-2.1-4.3-2.9c-1.5-0.8-3.1-1.6-4.7-2.1c-2.4-0.7-4.9-1.2-7.4-1.8
				c-10.4-2.5-20.7-5-31.1-7.5c-2.8-0.7-5.6-1.3-8.3-2C168.9,91,168.3,93.4,169.8,93.8L169.8,93.8z"/>
		</g>
	</g>
	<g class="st4">
		<circle class="st2" cx="193" cy="92.6" r="22.8"/>
	</g>
	<g class="st4">
		<circle class="st2" cx="252.7" cy="92.6" r="22.8"/>
	</g>
	<g>
		<g>
			<path class="st3" d="M214.6,92.6c-0.1,9-5.7,17.2-14.2,20.3c-8.6,3.1-18.3,0.4-24.1-6.6c-5.8-6.9-6.4-17.1-1.8-24.8
				c4.6-7.7,13.8-11.8,22.6-10.1C207.2,73.4,214.5,82.4,214.6,92.6c0,1.6,2.5,1.6,2.5,0c-0.1-10.1-6.4-19.1-15.9-22.6
				c-9.5-3.5-20.5-0.4-26.9,7.4c-6.3,7.8-7.2,19.1-1.9,27.7c5.3,8.6,15.5,13,25.4,11.1c11.1-2.2,19.2-12.3,19.3-23.6
				C217.1,91,214.6,91,214.6,92.6z"/>
		</g>
	</g>
	<g>
		<g>
			<path class="st3" d="M274.3,92.6c-0.1,9-5.7,17.2-14.2,20.3c-8.6,3.1-18.3,0.4-24.1-6.6c-5.8-6.9-6.4-17.1-1.8-24.8
				c4.6-7.7,13.8-11.8,22.6-10.1C266.9,73.4,274.2,82.4,274.3,92.6c0,1.6,2.5,1.6,2.5,0c-0.1-10.1-6.4-19.1-15.9-22.6
				c-9.5-3.5-20.5-0.4-26.9,7.4c-6.3,7.8-7.2,19.1-1.9,27.7c5.3,8.6,15.5,13,25.4,11.1c11.1-2.2,19.2-12.3,19.3-23.6
				C276.8,91,274.3,91,274.3,92.6z"/>
		</g>
	</g>
	<g>
		<g>
			<path class="st3" d="M277.3,93.8c6.8,1.6,13.7,3.3,20.5,4.9c8.5,2,16.9,4.1,25.4,6.1c5.6,1.4,11.7,5.2,11.8,11.5
				c0,1.6,2.5,1.6,2.5,0c-0.1-7.2-6.4-11.9-12.8-13.7c-2.6-0.7-5.3-1.3-7.9-1.9c-10.2-2.5-20.5-4.9-30.7-7.4c-2.7-0.7-5.4-1.3-8.2-2
				C276.4,91,275.7,93.4,277.3,93.8L277.3,93.8z"/>
		</g>
	</g>
	<g>
		<g>
			<path class="st3" d="M217.2,92.1c3.4-1.6,7.5-1.5,10.7,0.4c1.4,0.8,2.7-1.4,1.3-2.2c-4.1-2.3-9-2.4-13.2-0.4
				c-0.6,0.3-0.8,1.2-0.4,1.7C215.8,92.3,216.6,92.4,217.2,92.1L217.2,92.1z"/>
		</g>
	</g>
	<g>
		<polyline class="st3" points="129.7,159.5 127.7,315.9 320.9,315.9 320.9,161.9 		"/>
	</g>
	<line class="st5" x1="287.1" y1="161.7" x2="286.1" y2="315.9"/>
	<line class="st5" x1="131.4" y1="183.5" x2="319.8" y2="183.6"/>
	<g>
		<path class="st6" d="M308.9,206.3h-10.5c-2.8,0-5.1-2.3-5.1-5.1v0c0-2.8,2.3-5.1,5.1-5.1h10.5c2.8,0,5.1,2.3,5.1,5.1v0
			C314,204,311.7,206.3,308.9,206.3z"/>
	</g>
	<g>
		<g>
			<g>
				<path class="st6" d="M188.9,282.7c-2.4-2.2-2.5-6-0.2-8.3c2.2-2.4,6-2.5,8.3-0.2c6.7,6.4,17.9,9.6,29.1-0.7
					c2.4-2.2,6.1-2,8.3,0.4c2.2,2.4,2,6.1-0.4,8.3C221.1,294,199.5,292.7,188.9,282.7z"/>
			</g>
		</g>
		<g>
			<g>
				<path class="st6" d="M211.6,271.6c-1.5,0-3-0.5-4.2-1.6c-2.3-2.3-2.4-6-0.1-8.3l12.6-13l-18.6-37.9c-1.4-2.9-0.2-6.4,2.7-7.9
					c2.9-1.4,6.4-0.2,7.9,2.7l20.4,41.6c1.1,2.2,0.7,4.9-1.1,6.7l-15.4,16C214.6,271,213.1,271.6,211.6,271.6z"/>
			</g>
		</g>
		<g>
			<path class="st2" d="M163,208.4c12.6-6.3,26.3-4.3,30.6,4.4c4.4,8.7-2.3,20.9-14.8,27.2L163,208.4z"/>
		</g>
	</g>
	<g>
		<g>
			<path class="st1" d="M328,161.2c-10.7-30.7,0.4-45.2,0.4-45.2l-170.1-0.4c0,0-19.7,22.2-0.9,44.7L328,161.2z"/>
		</g>
		<g>
			<path class="st2" d="M326.7,119.5l-57-0.2c-8.1,1.4-9,10.9-9.2,19.6c-0.4,15.4,2,19.3,5.6,20.2l61.2-0.2
				C319,133.2,326.7,119.5,326.7,119.5z"/>
		</g>
		<line class="st7" x1="270.8" y1="135" x2="323.3" y2="135"/>
		<line class="st7" x1="271" y1="144.7" x2="324" y2="144.7"/>
	</g>
	<path class="st3" d="M173.5,115.6c0,0.2,0,0.3,0,0.5c0,11.8,9.6,21.3,21.3,21.3s21.3-9.6,21.3-21.3c0-0.2,0-0.3,0-0.5H173.5z"/>
	<path class="st3" d="M343.7,233.1c-0.3,0-0.5,0-0.8,0V270c0.3,0,0.5,0,0.8,0c10.2,0,18.4-8.3,18.4-18.4
		C362.2,241.4,353.9,233.1,343.7,233.1z"/>
	<path class="st8" d="M325.3,251.6c0,9.9,7.8,18,17.6,18.4v-36.8C333.1,233.6,325.3,241.6,325.3,251.6z"/>
</g>
</svg>
