<?xml version="1.0" encoding="utf-8"?>
<!-- Generator: Adobe Illustrator 23.1.1, SVG Export Plug-In . SVG Version: 6.00 Build 0)  -->
<svg version="1.1" id="Layer_1" xmlns="http://www.w3.org/2000/svg" xmlns:xlink="http://www.w3.org/1999/xlink" x="0px" y="0px"
	 viewBox="0 0 504.9 357.4" style="enable-background:new 0 0 504.9 357.4;" xml:space="preserve">
<style type="text/css">
	.st0{fill:#E4E8FE;}
	.st1{fill:#EE475B;}
	.st2{fill:#FFFFFF;}
	.st3{fill:none;stroke:#AA2138;stroke-width:3.2895;stroke-miterlimit:10;}
	.st4{fill:#E5E5E5;}
</style>
<g>
	<g>
		<g>
			<path class="st0" d="M121,24.3C84.9,36.2,52.5,60.4,34.7,91.8c-27,47.5-28.2,94,4,139.4c20,28.2,53.5,49.7,81.4,67.4
				c34.2,21.7,90.1,43.2,107.9,48.3c36.5,10.4,72.6-10.3,103.5-27.1c32.8-17.9,65.3-37.2,93-62.5c49-44.8,87.2-121.8,52.7-186.2
				c-16.7-31.1-48.5-52.8-83-60.1s-66.6-1.9-96.4,13c-14.1,7-22.8,15-41.1,16.2c-12,0.8-27.3-9.4-37.5-13.9
				C188.9,13,153.5,13.6,121,24.3z"/>
		</g>
		<g>
			<g>
				<path class="st1" d="M416.9,306.1L264,298.9c-8.8-0.4-15.4-8.2-14.9-17.3v0c-1.5-14.3,6.8-21.9,15.5-21.5L415.5,273
					C408.7,283.6,411.2,294.6,416.9,306.1z"/>
			</g>
			<g>
				<path class="st1" d="M417.4,270.6l5.3-199.2c-45.8-6.2-99-7.6-144.4-5.1c0,0-8.8-2.1-16.9,0.7c-4.3,73.2-8.1,137.8-12.4,211.1
					l0,0c0.5-9.1,8-15.3,16.8-14.8L417.4,270.6"/>
			</g>
			<g>
				<path class="st2" d="M415.5,303.6l-147.6-7.2c-8.5-0.4-15-8.1-14.5-17.3v0c0.5-9.1,7.2-17.2,15.7-16.8l148.3,8.3
					C410.8,281.1,410,292.1,415.5,303.6z"/>
			</g>
			<line class="st3" x1="278.3" y1="66.2" x2="267" y2="262.4"/>
			<g>
				<g>
					<path class="st4" d="M269.4,275.5c5,0.2,10,0.5,15,0.7c11.4,0.6,22.9,1.1,34.3,1.7c13.7,0.7,27.3,1.3,41,2
						c11.8,0.6,23.6,1.2,35.3,1.7c3.8,0.2,7.7,0.4,11.5,0.6c1.8,0.1,3.7,0.3,5.5,0.3c0.1,0,0.2,0,0.2,0c1.8,0.1,1.8-2.7,0-2.7
						c-4.7-0.2-9.3-0.5-14-0.7c-11.3-0.6-22.5-1.1-33.8-1.7c-13.6-0.7-27.3-1.3-40.9-2c-11.9-0.6-23.9-1.2-35.8-1.8
						c-6-0.3-12-0.8-18-0.9c-0.1,0-0.3,0-0.4,0C267.6,272.7,267.6,275.4,269.4,275.5L269.4,275.5z"/>
				</g>
			</g>
			<g>
				<g>
					<path class="st4" d="M268.8,285c5,0.2,10,0.5,15,0.7c11.4,0.6,22.9,1.1,34.3,1.7c13.7,0.7,27.3,1.3,41,2
						c11.8,0.6,23.6,1.2,35.3,1.7c3.8,0.2,7.7,0.4,11.5,0.6c1.8,0.1,3.7,0.3,5.5,0.3c0.1,0,0.2,0,0.2,0c1.8,0.1,1.8-2.7,0-2.7
						c-4.7-0.2-9.3-0.5-14-0.7c-11.3-0.6-22.5-1.1-33.8-1.7c-13.6-0.7-27.3-1.3-40.9-2c-11.9-0.6-23.9-1.2-35.8-1.8
						c-6-0.3-12-0.8-18-0.9c-0.1,0-0.3,0-0.4,0C267,282.1,267.1,284.9,268.8,285L268.8,285z"/>
				</g>
			</g>
			<g>
				<path class="st2" d="M337,65.1c0,0-3.1,29.1,27.8,32.8c15.1,1.8,35.1-14.2,37.7-28.8C402.5,69.1,374.5,64.6,337,65.1z"/>
			</g>
			<g>
				<path class="st2" d="M335.7,266.1c2.6-16.1,18.9-25.5,33.1-25.5c21.2-0.1,30.8,15.3,31.9,29.1"/>
			</g>
			<g>
				
					<ellipse transform="matrix(0.1693 -0.9856 0.9856 0.1693 48.2397 439.1856)" class="st2" cx="284.7" cy="191" rx="32.4" ry="31"/>
			</g>
			<g>
				<path class="st4" d="M336.8,261.8c-0.5,1.4-0.8,2.8-1.1,4.3l65,3.6c-0.1-1.3-0.3-2.7-0.5-4L336.8,261.8z"/>
			</g>
			<g>
				<path class="st4" d="M274.1,160.4c-13.3,4.8-21.5,19.4-20.4,33.6c1.1,14.2,6.7,17.9,17.6,26.4L274.1,160.4z"/>
			</g>
		</g>
	</g>
	<g>
		<path class="st2" d="M126.1,255c10.6,7.2,21.9,13.1,35.7,9.1c12.7-3.7,32.5-9.9,45.1-14c4.7-1.5,7.9-4.9,8.1-9.7
			c0.1-3.9-1.2-7.9-1.8-11.8c-0.2-1.5-0.8-3.4-0.1-4.4c4-5.6,3.4-11.2,1.4-17.2c-0.6-1.6-0.3-4,0.5-5.5c3.9-7.7,0.2-20.3-7.7-23.7
			c-2.8-1.2-2.6,3-4.3-5.5c-2-10.5-10.6-15.7-21-12.5c-3.6,1.1-14.4,4.5-18.3,5.7c1.3-6.6,2.6-12.4,3.6-18.2
			c1.4-8.3-1.1-15.8-6.2-22.4c-3-3.9-7.1-5.5-12.3-4.6c-5.1,0.9-6.3,4.2-7.4,8.6c-1.4,5.5-3,11.1-5.9,15.9
			c-8.8,14.5-18.2,28.6-27.6,42.8c-1,1.5-2.9,2.7-4.7,3.3c-4,1.4-47.5,15.4-74.6,24.1c2.9,5.4,6.2,10.8,10,16.2
			c9.8,13.9,23,26.1,37.1,37.1c21.3-6.8,42.1-13.6,44.2-14.3C122.4,253.1,124,253.5,126.1,255z"/>
		<g>
			<g>
				<path class="st0" d="M165.4,160.1c-4.4,6.6-9.7,12.6-15.7,17.7c-0.7,0.6-0.7,1.9,0,2.6c5.7,5.6,8.6,14,7,22
					c-1.5,7.7-6.8,14.3-13.8,17.9c-2.1,1.1-0.3,4.2,1.8,3.2c6.2-3.1,11.1-8.5,13.8-14.9c2.7-6.5,2.8-14,0.3-20.6
					c-1.5-3.8-3.7-7.3-6.6-10.1c0,0.9,0,1.7,0,2.6c6.3-5.4,11.7-11.6,16.3-18.5C169.9,159.9,166.7,158.1,165.4,160.1L165.4,160.1z"
					/>
			</g>
		</g>
		<g>
			<g>
				<path class="st0" d="M160.4,194.9c13.5-4.3,26.9-8.8,40.5-12.8c3.1-0.9,6.3-1.8,9.5-2.6c2.3-0.6,1.3-4.1-1-3.5
					c-6.3,1.5-12.4,3.5-18.6,5.4c-7.3,2.3-14.7,4.6-22,7c-3.1,1-6.2,2-9.4,3C157.2,192,158.2,195.6,160.4,194.9L160.4,194.9z"/>
			</g>
		</g>
		<g>
			<g>
				<path class="st0" d="M171.8,187.3c-5.7,1.6-12.3,4.6-14.6,10.5c-0.9,2.2-0.6,4.2-0.1,6.4c0.8,3.2,2.3,6.7,5.2,8.6
					c1.6,1,3.5,2.1,5.4,2.5c1.7,0.4,3.3,0.2,5-0.2c2.4-0.5,4.8-1,7.2-1.6c6.2-1.4,12.5-2.9,18.7-4.4c6-1.4,12-2.9,18.1-4.1
					c2.3-0.5,1.3-4-1-3.5c-10.7,2.2-21.2,4.9-31.8,7.4c-2.6,0.6-5.1,1.2-7.7,1.8c-2.1,0.5-4.5,1.3-6.7,1.3c-1.6-0.1-3.1-0.9-4.5-1.7
					c-1.4-0.8-2.3-1.7-3-3.1c-0.7-1.3-1.2-2.8-1.5-4.3c-0.1-0.3-0.2-0.6-0.2-1c0-0.1,0-0.2-0.1-0.3c0,0.1,0,0.4,0,0
					c0-0.4,0-0.7,0-1.1c0-0.3,0,0.3,0,0c0-0.1,0-0.2,0.1-0.4c0.1-0.2,0.1-0.4,0.2-0.6c0.1-0.4,0.3-0.7,0.5-1.1
					c0.6-1,1.3-1.9,2.2-2.6c2.7-2.4,6.1-3.7,9.5-4.7C175.1,190.2,174.1,186.7,171.8,187.3L171.8,187.3z"/>
			</g>
		</g>
		<g>
			<g>
				<path class="st0" d="M172.4,211.7c-4.8,2-8.7,6.6-9,11.9c-0.3,5.2,3.2,10.2,8.4,11.4c4.6,1,9.5-0.2,14-1.1
					c4.8-1,9.5-2.2,14.2-3.3c5.4-1.3,10.8-2.7,16.2-3.9c2.3-0.5,1.3-4.1-1-3.5c-8.7,2-17.4,4.3-26.1,6.3c-3.4,0.8-6.8,1.6-10.2,2
					c-2.5,0.3-5.3,0.6-7.6-0.5c-1.9-0.8-3.2-2.6-3.8-4.5c-1.6-5.2,2.3-9.7,6.8-11.6c0.9-0.4,1.1-1.7,0.7-2.5
					C174.4,211.4,173.3,211.3,172.4,211.7L172.4,211.7z"/>
			</g>
		</g>
		<g>
			<g>
				<path class="st0" d="M174.7,232.9c-4,2.1-7.5,5.8-7.6,10.5c-0.1,4.8,3.3,8.3,7.9,9.1c6.4,1.1,13-0.7,19.2-2.4
					c5.3-1.4,10.5-3,15.8-4.5c2.3-0.6,1.3-4.2-1-3.5c-7.2,2.1-14.5,4.3-21.8,6c-2.2,0.5-4.1,0.9-6.2,1c-3.2,0.2-8.1,0.4-9.7-3.1
					c-1.9-4.2,1.8-8.1,5.3-9.9C178.6,235,176.8,231.8,174.7,232.9L174.7,232.9z"/>
			</g>
		</g>
		<g>
			<g>
				<path class="st0" d="M133.7,138.5c2.2,2.2,5.1,3.7,8.2,4c2.8,0.2,5.7-1,7.5-3.2c1.8-2.2,2.2-5,1-7.6c-0.9-1.9-2.6-3.3-4.1-4.6
					c-0.9-0.7-1.8-1.5-2.6-2.4c-0.3-0.3-0.5-0.5-0.7-1c-0.1-0.1-0.1-0.2-0.2-0.3c0.1,0.2,0-0.1-0.1-0.2c0-0.1-0.1-0.2-0.1-0.3
					c0,0-0.1-0.6-0.1-0.3c-0.1-1-0.8-1.8-1.8-1.8c-0.9,0-1.9,0.8-1.8,1.8c0.5,4.2,4,6.1,6.7,8.8c0.7,0.6,1,1.1,1.4,1.8
					c0.2,0.4,0.2,0.4,0.3,0.9c0.1,0.3,0.1,0.7,0,1.1c-0.3,1.9-2.2,3.3-4,3.5c-2.7,0.4-5.3-1.1-7.1-2.9
					C134.6,134.3,132,136.9,133.7,138.5L133.7,138.5z"/>
			</g>
		</g>
	</g>
</g>
</svg>
