<?xml version="1.0" encoding="utf-8"?>
<!-- Generator: Adobe Illustrator 23.1.1, SVG Export Plug-In . SVG Version: 6.00 Build 0)  -->
<svg version="1.1" id="Layer_1" xmlns="http://www.w3.org/2000/svg" xmlns:xlink="http://www.w3.org/1999/xlink" x="0px" y="0px"
	 viewBox="0 0 600 167" style="enable-background:new 0 0 600 167;" xml:space="preserve">
<style type="text/css">
	.st0{fill:#656565;}
	.st1{fill:#E63B53;}
</style>
<g>
	<g>
		<g>
			<path class="st0" d="M511.4,126.9c-2.8-2.8-2.9-7.3-0.1-10.2c2.8-2.8,7.3-2.9,10.2-0.1c8.1,7.9,21.7,12,35.6-0.2
				c3-2.6,7.5-2.4,10.1,0.6c2.6,3,2.4,7.5-0.6,10.1C550.5,141.4,524.1,139.3,511.4,126.9z"/>
		</g>
		<g>
			<path class="st0" d="M539.3,113.8c-1.8,0-3.7-0.7-5.1-2.1c-2.8-2.8-2.8-7.3,0-10.2l15.6-15.7l-21.9-46.7
				c-1.7-3.6-0.1-7.9,3.5-9.5c3.6-1.7,7.9-0.1,9.5,3.5L565,84.3c1.3,2.7,0.7,6-1.4,8.1l-19.2,19.2
				C543,113.1,541.1,113.8,539.3,113.8z"/>
		</g>
		<path class="st1" d="M481.3,35.5c15.5-7.4,32.2-4.7,37.3,6c5.2,10.8-3.2,25.5-18.7,33L481.3,35.5z"/>
	</g>
	<g>
		<g>
			<path class="st0" d="M452.5,85.8c2.8-9.5,8.6-15.3,19-15.3c8.8,0,12.7,4.5,12.7,11.5c0,6.2-4.4,8-8.9,8c-2.8,0-4-0.9-4.6-3.1
				c-0.3-1.6-1.4-2.5-3.8-2.5c-4.8,0-7.9,6.5-7.9,15.2v13.5c3.4,0,6.2-0.3,7.4-0.3c1,0,1.5,0.5,1.5,1.4v8.4c0,1.4-1.3,2-6.2,2h-17.3
				c-1.3,0-1.6-0.4-1.6-1.8v-19.3c0-6.5-1.3-13.2-3.4-19.6c-3.3,0-5,0.4-6.3,0.4c-1.5,0-2.2-1.6-2.2-5.4c0-4.2,0.9-6.6,2.9-6.6H447
				c1.5,0,1.8,0.5,2.3,1.5C450.3,76.4,451.9,82.2,452.5,85.8z"/>
			<path class="st0" d="M88,105.9c0,10.6-6.8,19-24.8,19c-5.8,0-19.9,0-25,0c-3.6,0-7.5-1.4-7.5-8.1V63.1c0-6.6,4.1-8,7.9-8
				c6.9,0,13.6,0,21.7,0c15.6,0,22.2,8.4,22.2,17.1c0,7.6-4.7,14.5-15,15.5c0.2,0,3.5,0,3.7,0.1C82.7,89.2,88,97.6,88,105.9z
				 M57.1,66.9c-4.1,0-7.2-0.1-9.6,0c-0.1,3.1,0,12.5,0,15.8h6.5C68.7,82.7,71.4,66.9,57.1,66.9z M47.4,94.6v17.6
				c1.6,0.1,5.3,0,10.5,0c15.9,0,16.6-17.6,0.6-17.6H47.4z"/>
			<path class="st0" d="M94.2,98c0-18.8,12.7-27.5,26.9-27.5c14.2,0,26.9,8.7,26.9,27.5c0,19.3-12.7,28.1-26.9,28.1
				C106.9,126.1,94.2,117.3,94.2,98z M130.9,98.4c0-11.7-3.9-15.6-9.8-15.6c-5.9,0-9.8,3.9-9.8,15.6c0,11.8,3.9,15.3,9.8,15.3
				C127,113.7,130.9,110.2,130.9,98.4z"/>
			<path class="st0" d="M154.5,98c0-18.8,12.7-27.5,26.9-27.5c14.2,0,26.9,8.7,26.9,27.5c0,19.3-12.7,28.1-26.9,28.1
				C167.2,126.1,154.5,117.3,154.5,98z M191.2,98.4c0-11.7-3.9-15.6-9.8-15.6c-5.9,0-9.8,3.9-9.8,15.6c0,11.8,3.9,15.3,9.8,15.3
				C187.4,113.7,191.2,110.2,191.2,98.4z"/>
			<path class="st0" d="M232.7,89.8h3.5c2.6,0,9.4-10,12.5-16.1c0.5-1.1,1-1.4,1.6-1.4h15.3c0.7,0,1.1,0.5,1.1,1.1
				c0,1.8-11.7,20.2-15.9,22.3c1.6,1.1,3.3,2.8,5.3,6.2l6.7,11.2c2.3,0,5.5-0.3,7.3-0.3c0.8,0,1.4,0.6,1.4,1.4v8.3
				c0,1.1-0.9,2-1.7,2h-18.9c-0.2,0-0.9-0.3-1.4-1.3l-8.8-17.3c-1.6-3.1-2.8-4-4.7-4h-3.3v20.2c0,1.7-0.7,2.3-2.2,2.3h-12
				c-1.6,0-2.1-0.3-2.1-2.2V58.8c-4,0-5.3,0.4-6.6,0.4c-1.5,0-2.2-1.4-2.2-5.4c0-4.1,0.9-6.5,3-6.5h20.3c1.6,0,2.4,0.5,2.4,2.3
				C233.3,51.4,232.8,69.7,232.7,89.8z"/>
			<path class="st0" d="M277.3,121.5c-0.7-0.5-1.1-1.2-1.1-1.9c0-0.5,0.1-1.1,0.5-1.7l2.8-6c0.6-1.4,1.3-2.1,2.2-2.1
				c0.6,0,1.4,0.3,2.2,1c2.8,1.9,7.6,3.6,13.3,3.6c5.1,0,7.5-1.8,7.5-4.5c0-2.4-1.7-4.3-9.3-5.7c-12.9-2.3-17.6-7.4-17.6-15.6
				c0-10.4,8.4-17.9,22.3-17.9c18.5,0,20.6,7.4,20.6,10.7c0,3.7-5.1,6.9-8.3,6.9c-1.2,0-1.9-0.2-2.3-1.2c-1.8-2.6-4.2-5-9.8-5
				c-3.9,0-6.3,1.9-6.3,4.5c0,2.8,2.1,4.6,8.7,5.8c14.5,2.6,18.9,8.1,18.9,16.6c0,10.9-8.6,17.3-24.8,17.3
				C287.1,126.1,280.8,124,277.3,121.5z"/>
			<path class="st0" d="M368.6,71.9c1,0,1.6,0.8,1.6,1.6v8.7c0,1.1-0.9,1.6-1.9,1.6h-14.6c-0.1,4.7-0.2,9.6-0.2,12.4v10.2
				c0,3.8,1.7,4.9,5.2,4.9c3,0,5.2-0.9,6.8-2.2c0.8-0.7,1.3-1,2-1c2.6,0,4.3,9,4.3,11.4c0,1.4-0.5,2.2-1.1,2.8
				c-1.3,1.3-6.6,3.7-15,3.7c-10.7,0-18.5-2.5-18.5-16.5V84c-4.2,0-8.2,0.4-9.4,0.4c-1,0-1.6-0.4-1.6-1.3v-8.7c0-1.1,0.9-2,1.9-2
				h9.1V61.2c0-2.7,0.4-3.1,2.4-3.1h12.6c1.6,0,2,0.4,2,1.8c0,2.9-0.6,7.3-0.6,12.4C361.1,72.3,367.6,71.9,368.6,71.9z"/>
			<path class="st0" d="M405.7,113.5c4.5,0,8.1-1.6,10.9-3.7c0.5-0.4,1-0.6,1.5-0.6c0.5,0,1.1,0.3,1.5,1l4.1,5.5
				c0.6,0.9,0.9,1.6,0.9,2.1c0,0.5-0.3,1-0.8,1.6c-3.4,3.5-9.6,6.7-20,6.7c-13.8,0-26.5-7.6-26.5-26.7c0-16.1,10.6-28.9,28-28.9
				c17.1,0,21.4,12.1,21.4,18.4c0,5.4-1.6,6.7-6.5,7.9l-26,7C395,110.8,400.3,113.5,405.7,113.5z M411.6,87.9
				c-0.4-3.6-1.9-6.2-6.9-6.2c-5.6,0-10.3,3.6-10.8,11.1L411.6,87.9z"/>
		</g>
	</g>
</g>
</svg>
